<?xml version="1.0" encoding="UTF-8"?>
<svg width="1624px" height="500px" viewBox="0 0 1624 500" version="1.1" xmlns="http://www.w3.org/2000/svg" xmlns:xlink="http://www.w3.org/1999/xlink">
    <!-- Generator: Sketch 53 (72520) - https://sketchapp.com -->
    <title>Sterling Copy</title>
    <desc>Created with Sketch.</desc>
    <g id="Page-1" stroke="none" stroke-width="1" fill="none" fill-rule="evenodd">
        <g id="Sterling-Copy">
            <g id="Group" transform="translate(0.138198, 0.000000)">
                <path d="M249.997198,0 C388.069432,0 500,111.92969 500,249.999766 C500,388.069843 388.069432,500 249.997198,500 C111.929167,500 0,388.069843 0,249.999766 C0,111.92969 111.929167,0 249.997198,0 Z" id="Fill-1" fill="#D92128"></path>
                <path d="M333.3331,78.1094527 C373.448389,78.1094527 405.970149,110.630899 405.970149,150.746735 C405.970149,190.863039 373.448389,223.383085 333.3331,223.383085 C293.215477,223.383085 260.696517,190.863039 260.696517,150.746735 C260.696517,110.630899 293.215477,78.1094527 333.3331,78.1094527" id="Fill-2" fill="#FFFFFF"></path>
            </g>
            <path d="M717.544346,384.439396 C717.544346,356.894977 699.284769,337.435699 661.871155,329.651427 C623.560747,321.567689 613.980459,314.083818 613.980459,301.808943 C613.980459,285.940933 625.655603,275.461926 657.382512,275.461926 C679.828531,275.461926 698.088109,282.048797 710.65958,295.521072 L711.857641,295.521072 L711.857641,276.661662 C711.857641,259.596718 698.088109,239.236703 650.196011,239.236703 C602.007318,239.236703 573.272526,271.570724 573.272526,305.699678 C573.272526,333.543563 593.026761,350.907507 627.747189,358.391378 C671.149709,367.673452 676.538416,373.959921 676.538416,388.030663 C676.538416,404.497141 666.661532,414.975214 635.830484,414.975214 C610.988341,414.975214 592.432168,405.095607 578.661234,392.820733 L577.764906,392.820733 L577.764906,411.084479 C577.764906,435.332425 599.0152,451.499436 640.31866,451.499436 C690.007616,451.499436 717.544346,424.854352 717.544346,384.439396 Z M744.531322,292.826337 L744.531322,389.827932 C744.531322,427.548153 764.286959,449.705437 804.994891,449.705437 C828.340975,449.705437 840.314116,439.224561 840.314116,422.759485 L840.314116,408.387875 L838.816656,408.387875 C832.531621,412.280011 822.654737,414.078681 809.785268,414.078681 C793.620547,414.078681 784.339191,405.994943 784.339191,385.036461 L784.339191,321.866688 L816.368301,321.866688 C832.828217,321.866688 840.314116,311.091017 840.314116,302.705476 L840.314116,286.2404 L784.339191,286.2404 L784.339191,249.71571 L775.060637,249.71571 C768.774201,249.71571 761.591437,254.504378 756.20273,260.79225 C747.523907,270.970856 744.531322,276.959727 744.531322,292.826337 Z M993.013469,345.219971 C993.013469,306.599013 961.884423,282.648665 928.359254,282.648665 C882.265417,282.648665 849.341381,316.479554 849.341381,370.367252 C849.341381,419.765283 888.551853,451.499436 928.661455,451.499436 C972.961237,451.499436 987.028767,435.631892 987.028767,414.975214 L987.028767,402.400872 L985.52757,402.400872 C972.659503,414.376747 952.905268,417.67135 936.140815,417.67135 C912.493932,417.67135 893.936357,404.796608 890.944239,384.439396 L917.282908,384.439396 C970.563246,384.439396 993.013469,374.859257 993.013469,345.219971 Z M955.297654,340.4285 C955.297654,351.804039 946.618832,355.997044 908.604085,355.997044 L890.647643,355.997044 L890.944239,350.608507 C891.845705,332.045761 905.311168,316.180554 924.767405,316.180554 C943.324513,316.180554 955.297654,324.261489 955.297654,340.4285 Z M1109.4968,325.459824 L1109.4968,311.091017 C1109.4968,298.816143 1100.81424,284.743999 1075.97163,284.743999 C1033.46965,284.743999 1016.41,315.579284 1016.41,347.914706 L1016.41,422.159617 C1016.41,438.925094 1027.78294,447.908168 1045.73938,447.908168 L1056.81573,447.908168 L1056.81573,355.09911 C1056.81573,330.550295 1066.69308,320.668353 1084.65046,320.668353 C1095.12614,320.668353 1102.0109,323.066892 1108.00074,325.459824 L1109.4968,325.459824 Z M1204.12918,425.153819 L1204.12918,416.473015 L1193.3555,416.473015 C1174.49759,416.473015 1166.11677,411.383479 1166.11677,395.216468 L1166.11677,259.295849 C1166.11677,244.026773 1157.43794,232.350365 1137.38197,232.350365 L1126.00856,232.350365 L1126.00856,399.110006 C1126.00856,431.741158 1143.97014,449.40597 1177.19358,449.40597 C1194.85156,449.40597 1204.12918,442.519632 1204.12918,425.153819 Z M1263.14666,251.212111 C1263.14666,238.340171 1252.37299,227.860697 1239.49978,227.860697 C1226.62938,227.860697 1216.1537,238.340171 1216.1537,251.212111 C1216.1537,264.085919 1226.62938,274.864393 1239.49978,274.864393 C1252.37299,274.864393 1263.14666,264.085919 1263.14666,251.212111 Z M1291.88286,425.153819 L1291.88286,416.473015 L1284.39696,416.473015 C1266.73851,416.473015 1259.85235,411.383479 1259.85235,395.216468 L1259.85235,319.77042 C1259.85235,299.414609 1249.07913,289.833069 1231.11755,289.833069 L1219.74414,289.833069 C1219.74414,289.833069 1219.74414,389.827932 1219.74414,399.110006 C1219.74414,431.741158 1236.80426,449.40597 1267.93704,449.40597 C1284.99669,449.40597 1291.88286,442.519632 1291.88286,425.153819 Z M1449.06899,447.908168 L1449.06899,353.900775 C1449.06899,308.094012 1417.64521,282.648665 1379.63,282.648665 C1329.34318,282.648665 1306.89436,317.675553 1306.89436,351.804039 L1306.89436,421.562085 C1306.89436,436.53076 1317.96837,447.908168 1335.03362,447.908168 L1347.00536,447.908168 L1347.00536,354.499242 C1347.00536,331.448229 1358.9785,318.275421 1376.33615,318.275421 C1396.98811,318.275421 1408.96078,330.251296 1408.96078,357.494846 L1408.96078,421.562085 C1408.96078,436.53076 1420.33419,447.908168 1438.29718,447.908168 L1449.06899,447.908168 Z M1621.82711,380.844858 L1621.82711,353.303243 C1621.82711,311.987549 1596.08677,282.648665 1555.97857,282.648665 C1503.89629,282.648665 1473.96718,319.472354 1473.96718,364.979651 C1473.96718,402.999339 1501.8005,430.245692 1541.00817,430.245692 C1564.05766,430.245692 1579.32512,417.970817 1582.61383,406.29441 L1582.61383,410.185144 C1582.61383,411.682946 1582.91557,415.871746 1582.91557,418.270284 C1583.21357,420.963618 1583.21357,424.255886 1583.21357,426.651621 C1583.21357,450.003035 1570.04517,463.774778 1541.00817,463.774778 C1517.96382,463.774778 1499.40391,456.590374 1489.82876,446.408965 L1488.0305,446.408965 L1488.0305,464.674113 C1488.0305,483.835325 1510.77732,500 1544.0059,500 C1596.08677,500 1623.02377,463.774778 1623.02377,423.359354 C1623.02377,417.970817 1622.72204,409.28721 1622.42544,402.700339 C1622.12371,395.515935 1621.82711,386.236198 1621.82711,380.844858 Z M1551.48619,318.275421 C1569.14884,318.275421 1581.71611,330.550295 1581.71611,355.697577 C1581.71611,381.443792 1567.35198,396.412468 1547.29461,396.412468 C1528.14011,396.412468 1515.27064,380.844858 1515.27064,359.887778 C1515.27064,335.639832 1530.83469,318.275421 1551.48619,318.275421 L1551.48619,318.275421 Z" id="Fill-3" fill="#FFFFFF"></path>
        </g>
    </g>
</svg>